HIERARCHY
ROOT Hips
{
	OFFSET 0.000000 0.000000 0.000000
	CHANNELS 6 Xposition Yposition Zposition Zrotation Yrotation Xrotation 
	JOINT LowerBack
	{
		OFFSET 0.000000 0.000000 0.000000
		CHANNELS 3 Zrotation Yrotation Xrotation
		JOINT Spine
		{
			OFFSET 0.028270 2.035590 -0.193380
			CHANNELS 3 Zrotation Yrotation Xrotation
			JOINT Spine1
			{
				OFFSET 0.056720 2.048850 -0.042750
				CHANNELS 3 Zrotation Yrotation Xrotation
				JOINT Neck
				{
					OFFSET 0.000000 0.000000 0.000000
					CHANNELS 3 Zrotation Yrotation Xrotation
					JOINT Neck1
					{
						OFFSET -0.054170 1.746240 0.172020
						CHANNELS 3 Zrotation Yrotation Xrotation
						JOINT Head
						{
							OFFSET 0.104070 1.761360 -0.123970
							CHANNELS 3 Zrotation Yrotation Xrotation
							End Site
							{
								OFFSET 0.000000 0.000000 0.000000
							}
						}
					}
				}
				JOINT LeftShoulder
				{
					OFFSET 0.000000 0.000000 0.000000
					CHANNELS 3 Zrotation Yrotation Xrotation
					JOINT LeftArm
					{
						OFFSET 3.362410 1.200890 -0.311210
						CHANNELS 3 Zrotation Yrotation Xrotation
						JOINT LeftForeArm
						{
							OFFSET 4.983000 -0.000000 -0.000000
							CHANNELS 3 Zrotation Yrotation Xrotation
							JOINT LeftHand
							{
								OFFSET 3.483560 -0.000000 -0.000000
								CHANNELS 3 Zrotation Yrotation Xrotation
								JOINT LeftFingerBase
								{
									OFFSET 0.000000 0.000000 0.000000
									CHANNELS 3 Zrotation Yrotation Xrotation
									JOINT LeftHandIndex1
									{
										OFFSET 0.715260 -0.000000 -0.000000
										CHANNELS 3 Zrotation Yrotation Xrotation
										End Site
										{
											OFFSET 0.000000 0.000000 0.000000
										}
									}
								}
								JOINT LThumb
								{
									OFFSET 0.000000 0.000000 0.000000
									CHANNELS 3 Zrotation Yrotation Xrotation
									End Site
									{
										OFFSET 0.000000 0.000000 0.000000
									}
								}
							}
						}
					}
				}
				JOINT RightShoulder
				{
					OFFSET 0.000000 0.000000 0.000000
					CHANNELS 3 Zrotation Yrotation Xrotation
					JOINT RightArm
					{
						OFFSET -3.136600 1.374050 -0.404650
						CHANNELS 3 Zrotation Yrotation Xrotation
						JOINT RightForeArm
						{
							OFFSET -5.241900 -0.000000 -0.000000
							CHANNELS 3 Zrotation Yrotation Xrotation
							JOINT RightHand
							{
								OFFSET -3.444170 -0.000000 -0.000000
								CHANNELS 3 Zrotation Yrotation Xrotation
								JOINT RightFingerBase
								{
									OFFSET 0.000000 0.000000 0.000000
									CHANNELS 3 Zrotation Yrotation Xrotation
									JOINT RightHandIndex1
									{
										OFFSET -0.622530 -0.000000 -0.000000
										CHANNELS 3 Zrotation Yrotation Xrotation
										End Site
										{
											OFFSET 0.000000 0.000000 0.000000
										}
									}
								}
								JOINT RThumb
								{
									OFFSET 0.000000 0.000000 0.000000
									CHANNELS 3 Zrotation Yrotation Xrotation
									End Site
									{
										OFFSET 0.000000 0.000000 0.000000
									}
								}
							}
						}
					}
				}
			}
		}
	}
}
}
MOTION
Frames: 12
Frame Time: 0.008333
2.949518 16.849141 0.891473 -171.934782 -37.298007 -159.344417 -0.153132 -7.482795 -0.637127 0.286185 -7.425796 -2.330544 -4.527367 -7.470114 2.462004 17.783104 -18.175385 -7.598013 -0.084290 -0.000270 0.003640 0.000000 0.000000 0.000000 35.300480 -2.598738 4.324639 12.475939 -14.055818 -47.062846 -0.611241 -14.273815 -0.054983 5.820590 -4.582197 -0.288766 -0.320022 0.776715 -0.000000 0.000000 0.000000 0.000000 0.000000 0.000000 0.000000 8.353006 -18.959483 -4.505675 58.451664 47.353005 13.938201 -177.945169 57.700305 179.740728 -22.060090 16.530898 -3.523257 0.420166 -1.052793 -0.000000 0.000000 0.000000 0.000000 0.000000 0.000000 0.000000 
2.946868 16.842808 0.863223 -171.984836 -37.131229 -159.206605 -0.144928 -7.377897 -0.938316 0.211745 -7.338065 -2.335807 -4.769047 -7.368321 2.511742 17.535393 -18.132370 -7.515197 -0.180831 -0.009130 0.028900 0.000000 0.000000 0.000000 36.174007 -2.901351 4.072980 10.018352 -14.075980 -45.566445 -0.327678 -20.519787 -0.059360 5.496902 -4.311386 -0.259286 -0.268261 0.812829 -0.000000 0.000000 0.000000 0.000000 0.000000 0.000000 0.000000 8.223740 -18.804572 -4.387853 58.346302 46.733248 13.728385 -178.055932 57.296449 179.743226 -21.875516 16.582381 -3.507346 0.428998 -1.063235 0.000000 0.000000 0.000000 0.000000 0.000000 0.000000 0.000000 
2.944550 16.839881 0.834733 -172.075935 -37.033784 -159.059032 -0.115943 -7.267023 -1.239171 0.144216 -7.246254 -2.357816 -4.994278 -7.263903 2.498316 17.253829 -18.077762 -7.348813 -0.294856 -0.020989 0.078224 0.000000 0.000000 0.000000 36.564883 -3.181183 3.753399 8.117160 -14.253357 -44.664104 -0.071920 -26.442798 -0.064313 5.457991 -4.445302 -0.263987 -0.227869 0.846651 -0.000000 0.000000 0.000000 0.000000 0.000000 0.000000 0.000000 8.063897 -18.628545 -4.252704 58.337506 46.141129 13.585864 -178.179683 56.924930 179.745327 -21.724851 16.659602 -3.502325 0.439084 -1.075209 0.000000 0.000000 0.000000 0.000000 0.000000 0.000000 0.000000 
2.942613 16.840032 0.807258 -172.198062 -37.007568 -158.915577 -0.056335 -7.156861 -1.514698 0.087850 -7.156400 -2.389982 -5.193244 -7.162722 2.437154 16.940932 -18.021387 -7.121578 -0.415638 -0.034481 0.144631 0.000000 0.000000 0.000000 36.610854 -3.353374 3.356943 6.468537 -14.708560 -44.483645 0.172522 -32.139741 -0.072476 5.761958 -4.774253 -0.295295 -0.198401 0.874576 -0.000000 0.000000 0.000000 0.000000 0.000000 0.000000 0.000000 7.860744 -18.447926 -4.113329 58.441844 45.616054 13.523262 -178.305337 56.601961 179.746884 -21.613628 16.756698 -3.507800 0.449485 -1.087921 -0.000000 0.000000 0.000000 0.000000 0.000000 0.000000 0.000000 
2.940908 16.843028 0.781455 -172.344166 -37.052172 -158.784131 0.038414 -7.052329 -1.753116 0.043715 -7.073008 -2.431287 -5.365910 -7.069408 2.325079 16.597877 -17.953908 -6.839088 -0.539864 -0.049166 0.226344 0.000000 0.000000 0.000000 36.410883 -3.446989 2.879172 4.840019 -15.397071 -44.896791 0.398532 -37.780906 -0.085106 6.421884 -5.113630 -0.347606 -0.178184 0.894863 -0.000000 0.000000 0.000000 0.000000 0.000000 0.000000 0.000000 7.611982 -18.257269 -3.970816 58.648239 45.163740 13.533157 -178.428859 56.340304 179.747859 -21.545464 16.863285 -3.521977 0.459904 -1.100726 0.000000 0.000000 0.000000 0.000000 0.000000 0.000000 0.000000 
2.939106 16.848597 0.757748 -172.502378 -37.168127 -158.673213 0.162386 -6.955900 -1.949736 0.009662 -6.997817 -2.482593 -5.517867 -6.985711 2.153702 16.235380 -17.854624 -6.501424 -0.667683 -0.064988 0.323299 0.000000 0.000000 0.000000 36.080971 -3.532171 2.319146 3.019113 -16.233139 -45.747723 0.589740 -43.520267 -0.102151 7.397231 -5.363155 -0.415715 -0.164400 0.908259 -0.000000 0.000000 0.000000 0.000000 0.000000 0.000000 0.000000 7.332546 -18.038267 -3.820665 58.916471 44.768414 13.581844 -178.548924 56.139117 179.748252 -21.523075 16.962723 -3.542053 0.470467 -1.113049 0.000000 0.000000 0.000000 0.000000 0.000000 0.000000 0.000000 
2.936785 16.856416 0.736203 -172.664442 -37.350310 -158.586172 0.316379 -6.868005 -2.104467 -0.012341 -6.930961 -2.541480 -5.645493 -6.911666 1.932921 15.853295 -17.721243 -6.123626 -0.798385 -0.081545 0.431008 0.000000 0.000000 0.000000 35.608904 -3.566678 1.690978 1.030825 -17.277390 -46.875080 0.723328 -49.342666 -0.123139 8.653558 -5.508866 -0.496212 -0.155746 0.916314 -0.000000 0.000000 0.000000 0.000000 0.000000 0.000000 0.000000 7.029245 -17.795893 -3.666629 59.218666 44.444637 13.656793 -178.662970 56.001001 179.748092 -21.546118 17.048739 -3.566732 0.481037 -1.124443 0.000000 0.000000 0.000000 0.000000 0.000000 0.000000 0.000000 
2.933967 16.866057 0.716734 -172.825305 -37.593050 -158.525849 0.491564 -6.786279 -2.219504 -0.023455 -6.869383 -2.606507 -5.748945 -6.844083 1.669612 15.458917 -17.546694 -5.716638 -0.931017 -0.098520 0.546256 0.000000 0.000000 0.000000 35.022991 -3.549712 1.014036 -1.131318 -18.541987 -48.114850 0.778673 -55.217137 -0.146754 10.102439 -5.565531 -0.583287 -0.150441 0.920844 -0.000000 0.000000 0.000000 0.000000 0.000000 0.000000 0.000000 6.714822 -17.530683 -3.510388 59.522540 44.186576 13.734058 -178.768591 55.923585 179.747410 -21.611682 17.113936 -3.594217 0.491443 -1.134483 -0.000000 0.000000 0.000000 0.000000 0.000000 0.000000 0.000000 
2.930588 16.876883 0.699170 -172.976657 -37.889191 -158.493452 0.676892 -6.706216 -2.300163 -0.025464 -6.807932 -2.675749 -5.828424 -6.777627 1.375342 15.060466 -17.327655 -5.293154 -1.063701 -0.115516 0.665340 0.000000 0.000000 0.000000 34.352371 -3.474928 0.314399 -3.455306 -20.039598 -49.311417 0.742109 -61.062663 -0.171115 11.619250 -5.564254 -0.669836 -0.146921 0.923425 -0.000000 0.000000 0.000000 0.000000 0.000000 0.000000 0.000000 6.400220 -17.247362 -3.355785 59.801236 43.986124 13.790992 -178.862401 55.899796 179.746257 -21.714180 17.152818 -3.622208 0.501402 -1.142822 0.000000 0.000000 0.000000 0.000000 0.000000 0.000000 0.000000 
2.926948 16.888310 0.683184 -173.118064 -38.228260 -158.486899 0.862759 -6.622801 -2.352997 -0.019770 -6.741156 -2.746436 -5.882948 -6.706690 1.066600 14.662420 -17.069423 -4.868249 -1.193056 -0.132010 0.783925 0.000000 0.000000 0.000000 33.605388 -3.326020 -0.376619 -5.890211 -21.773816 -50.321776 0.611380 -66.760345 -0.194365 13.081290 -5.531332 -0.749759 -0.144481 0.925136 -0.000000 0.000000 0.000000 0.000000 0.000000 0.000000 0.000000 6.087205 -16.958143 -3.209646 60.046937 43.839655 13.818891 -178.940318 55.921514 179.744667 -21.845670 17.166281 -3.649509 0.510461 -1.149322 -0.000000 0.000000 0.000000 0.000000 0.000000 0.000000 0.000000 
2.923392 16.899637 0.668472 -173.249543 -38.599042 -158.503295 1.040381 -6.531483 -2.385887 -0.008360 -6.664290 -2.816073 -5.913492 -6.626342 0.759341 14.267199 -16.780439 -4.454536 -1.315734 -0.147560 0.898453 0.000000 0.000000 0.000000 32.790338 -3.105852 -1.027485 -8.387348 -23.700027 -51.027572 0.396757 -72.200379 -0.215032 14.389818 -5.476768 -0.817561 -0.143050 0.926566 -0.000000 0.000000 0.000000 0.000000 0.000000 0.000000 0.000000 5.774097 -16.673903 -3.078345 60.262666 43.741835 13.816570 -178.999319 55.984462 179.742705 -21.996262 17.158891 -3.675122 0.518114 -1.153972 -0.000000 0.000000 0.000000 0.000000 0.000000 0.000000 0.000000 
2.920259 16.910318 0.654645 -173.371826 -38.990769 -158.538183 1.200609 -6.428821 -2.407301 0.006072 -6.573747 -2.883003 -5.922959 -6.532831 0.465837 13.879363 -16.468679 -4.060116 -1.429255 -0.161886 1.006746 0.000000 0.000000 0.000000 31.938624 -2.838733 -1.613401 -10.938213 -25.733048 -51.356712 0.118840 -77.303028 -0.232116 15.471355 -5.403217 -0.869049 -0.142468 0.928150 -0.000000 0.000000 0.000000 0.000000 0.000000 0.000000 0.000000 5.460278 -16.400076 -2.965953 60.452235 43.682738 13.780532 -179.038008 56.077336 179.740434 -22.156433 17.133459 -3.698149 0.524089 -1.156933 -0.000000 0.000000 0.000000 0.000000 0.000000 0.000000 0.000000 
